<svg width="277" height="80" viewBox="0 0 277 80" fill="none" xmlns="http://www.w3.org/2000/svg">
<rect width="80" height="80" rx="16" fill="#D0F1F8"/>
<path d="M49.9768 51.9586C47.4652 55.3305 43.9559 57.8235 39.9481 59.0828C35.9404 60.3421 31.6381 60.3038 27.6533 58.9732C23.6686 57.6425 20.2042 55.0874 17.753 51.6713C15.3018 48.2551 13.9885 44.1518 14.0001 39.9451C14.0116 35.7384 15.3473 31.6424 17.8172 28.2397C20.2871 24.8371 23.7654 22.3011 27.7574 20.9924C31.7494 19.6837 36.0518 19.669 40.0527 20.9504C44.0535 22.2317 47.549 24.7439 50.0421 28.1296L46.8287 30.5029C44.8341 27.7941 42.0374 25.7842 38.8365 24.759C35.6356 23.7339 32.1934 23.7456 28.9995 24.7927C25.8057 25.8397 23.0228 27.8687 21.0467 30.591C19.0706 33.3134 18.002 36.5904 17.9927 39.9561C17.9835 43.3217 19.0342 46.6046 20.9953 49.3378C22.9564 52.0709 25.7282 54.1152 28.9162 55.1798C32.1043 56.2443 35.5464 56.275 38.7529 55.2675C41.9594 54.2599 44.767 52.2654 46.7764 49.5677L49.9768 51.9586Z" fill="#222222"/>
<path d="M29.4055 40.0037C29.4055 45.6865 34.0053 50.2932 39.6795 50.2932C45.3536 50.2932 49.9535 45.6865 49.9535 40.0037C49.9535 34.321 45.3536 29.7143 39.6795 29.7143C34.0053 29.7143 29.4055 34.321 29.4055 40.0037ZM45.9589 40.0037C45.9589 43.477 43.1475 46.2927 39.6795 46.2927C36.2114 46.2927 33.4 43.477 33.4 40.0037C33.4 36.5305 36.2114 33.7148 39.6795 33.7148C43.1475 33.7148 45.9589 36.5305 45.9589 40.0037Z" fill="#222222"/>
<path d="M66.5 40.1145C66.5 45.7972 61.9002 50.404 56.226 50.404C50.5518 50.404 45.952 45.7972 45.952 40.1145C45.952 34.4318 50.5518 29.8251 56.226 29.8251C61.9002 29.8251 66.5 34.4318 66.5 40.1145ZM49.9465 40.1145C49.9465 43.5878 52.758 46.4034 56.226 46.4034C59.6941 46.4034 62.5055 43.5878 62.5055 40.1145C62.5055 36.6412 59.6941 33.8256 56.226 33.8256C52.758 33.8256 49.9465 36.6412 49.9465 40.1145Z" fill="#222222"/>
<path d="M110.352 54.3648C108.404 54.3648 106.557 53.9924 104.809 53.2476C103.062 52.5028 101.529 51.4571 100.211 50.1107C98.8934 48.7929 97.8621 47.2603 97.1172 45.5128C96.3724 43.7653 96 41.9032 96 39.9266C96 37.9499 96.3581 36.0878 97.0743 34.3403C97.8191 32.5928 98.8647 31.0459 100.211 29.6994C101.529 28.3817 103.062 27.3504 104.809 26.6055C106.557 25.8607 108.404 25.4883 110.352 25.4883C112.501 25.4883 114.535 25.9466 116.454 26.8634C118.374 27.7801 120.092 29.1408 121.611 30.9456L118.689 33.4379C116.34 30.7451 113.561 29.3986 110.352 29.3986C108.949 29.3986 107.602 29.6708 106.313 30.2151C105.053 30.7594 103.935 31.5186 102.961 32.4926C101.987 33.4666 101.228 34.5981 100.684 35.8873C100.14 37.1478 99.8674 38.4942 99.8674 39.9266C99.8674 41.3589 100.14 42.7197 100.684 44.0088C101.228 45.2693 101.987 46.3865 102.961 47.3605C103.935 48.3346 105.053 49.0937 106.313 49.638C107.602 50.1823 108.949 50.4545 110.352 50.4545C113.561 50.4545 116.34 49.108 118.689 46.4152L121.611 48.9075C120.064 50.7123 118.331 52.073 116.411 52.9898C114.521 53.9065 112.501 54.3648 110.352 54.3648Z" fill="#D0F1F8"/>
<path d="M133.353 54.4078C131.892 54.4078 130.502 54.1213 129.184 53.5484C127.867 52.9754 126.706 52.1876 125.704 51.185C124.701 50.1823 123.913 49.0221 123.34 47.7043C122.767 46.3865 122.481 44.9971 122.481 43.5361C122.481 42.0465 122.767 40.6284 123.34 39.282C123.913 37.9356 124.701 36.761 125.704 35.7584C126.706 34.7557 127.867 33.9822 129.184 33.4379C130.502 32.865 131.892 32.5785 133.353 32.5785C134.842 32.5785 136.26 32.865 137.607 33.4379C138.953 33.9822 140.128 34.7557 141.13 35.7584C142.133 36.761 142.906 37.9356 143.451 39.282C144.024 40.6284 144.31 42.0465 144.31 43.5361C144.31 44.9971 144.024 46.3865 143.451 47.7043C142.906 49.0221 142.133 50.1823 141.13 51.185C140.128 52.1876 138.953 52.9754 137.607 53.5484C136.26 54.1213 134.842 54.4078 133.353 54.4078ZM133.353 36.4029C131.433 36.4029 129.786 37.0905 128.411 38.4655C127.752 39.1244 127.236 39.8979 126.864 40.786C126.492 41.674 126.305 42.5908 126.305 43.5361C126.305 44.4815 126.492 45.3839 126.864 46.2433C127.236 47.1027 127.752 47.8619 128.411 48.5208C129.07 49.1797 129.815 49.6953 130.645 50.0677C131.505 50.4401 132.407 50.6264 133.353 50.6264C134.298 50.6264 135.215 50.4401 136.103 50.0677C136.991 49.6953 137.75 49.1797 138.38 48.5208C139.01 47.8619 139.512 47.1027 139.884 46.2433C140.257 45.3839 140.443 44.4815 140.443 43.5361C140.443 42.5908 140.257 41.674 139.884 40.786C139.512 39.8979 139.01 39.1244 138.38 38.4655C137.75 37.8067 136.991 37.3053 136.103 36.9616C135.243 36.5891 134.327 36.4029 133.353 36.4029Z" fill="#D0F1F8"/>
<path d="M156.057 54.4078C154.596 54.4078 153.206 54.1213 151.889 53.5484C150.571 52.9754 149.411 52.1876 148.408 51.185C147.405 50.1823 146.617 49.0221 146.044 47.7043C145.472 46.3865 145.185 44.9971 145.185 43.5361C145.185 42.0465 145.472 40.6284 146.044 39.282C146.617 37.9356 147.405 36.761 148.408 35.7584C149.411 34.7557 150.571 33.9822 151.889 33.4379C153.206 32.865 154.596 32.5785 156.057 32.5785C157.546 32.5785 158.964 32.865 160.311 33.4379C161.657 33.9822 162.832 34.7557 163.835 35.7584C164.837 36.761 165.611 37.9356 166.155 39.282C166.728 40.6284 167.014 42.0465 167.014 43.5361C167.014 44.9971 166.728 46.3865 166.155 47.7043C165.611 49.0221 164.837 50.1823 163.835 51.185C162.832 52.1876 161.657 52.9754 160.311 53.5484C158.964 54.1213 157.546 54.4078 156.057 54.4078ZM156.057 36.4029C154.137 36.4029 152.49 37.0905 151.115 38.4655C150.456 39.1244 149.941 39.8979 149.568 40.786C149.196 41.674 149.009 42.5908 149.009 43.5361C149.009 44.4815 149.196 45.3839 149.568 46.2433C149.941 47.1027 150.456 47.8619 151.115 48.5208C151.774 49.1797 152.519 49.6953 153.35 50.0677C154.209 50.4401 155.111 50.6264 156.057 50.6264C157.002 50.6264 157.919 50.4401 158.807 50.0677C159.695 49.6953 160.454 49.1797 161.084 48.5208C161.715 47.8619 162.216 47.1027 162.588 46.2433C162.961 45.3839 163.147 44.4815 163.147 43.5361C163.147 42.5908 162.961 41.674 162.588 40.786C162.216 39.8979 161.715 39.1244 161.084 38.4655C160.454 37.8067 159.695 37.3053 158.807 36.9616C157.947 36.5891 157.031 36.4029 156.057 36.4029Z" fill="#D0F1F8"/>
<path d="M173.883 36.5748V54.1929H170.231V36.5748H167.008V32.7074H170.231V25.6172H173.883V32.7074H177.106V36.5748H173.883Z" fill="#D0F1F8"/>
<path d="M181.668 45.0831C181.668 45.7706 181.911 46.4868 182.398 47.2316C182.914 47.9765 183.501 48.6067 184.16 49.1224C185.363 50.0677 186.767 50.5404 188.371 50.5404C190.921 50.5404 192.998 49.3086 194.602 46.8449L197.868 48.7786C196.751 50.5834 195.376 51.9728 193.743 52.9468C192.11 53.9208 190.319 54.4078 188.371 54.4078C186.91 54.4078 185.521 54.1357 184.203 53.5914C182.885 53.0184 181.725 52.2306 180.722 51.2279C179.72 50.2253 178.932 49.0651 178.359 47.7473C177.815 46.4295 177.543 45.0401 177.543 43.5791C177.543 42.1181 177.815 40.7287 178.359 39.4109C178.932 38.0645 179.72 36.8899 180.722 35.8873C181.696 34.8846 182.842 34.1111 184.16 33.5668C185.507 33.0225 186.91 32.7504 188.371 32.7504C189.832 32.7504 191.222 33.0225 192.54 33.5668C193.886 34.1111 195.046 34.8846 196.02 35.8873C198.14 38.0645 199.2 40.5854 199.2 43.4502C199.2 43.9658 199.157 44.5101 199.071 45.0831H181.668ZM188.371 36.274C187.197 36.274 186.094 36.5318 185.063 37.0475C184.031 37.5631 183.2 38.2507 182.57 39.1101C181.969 39.9409 181.668 40.8289 181.668 41.7743H195.075C195.075 40.8289 194.76 39.9409 194.129 39.1101C193.528 38.2507 192.711 37.5631 191.68 37.0475C190.649 36.5318 189.546 36.274 188.371 36.274Z" fill="#D0F1F8"/>
<path d="M210.93 36.8326C210.243 36.5175 209.627 36.36 209.083 36.36C207.937 36.36 206.991 36.761 206.247 37.5631C205.444 38.4226 205.043 39.4109 205.043 40.5282V54.1929H201.348V40.5282C201.348 38.9812 201.735 37.5631 202.508 36.274C203.31 34.9849 204.399 33.9822 205.774 33.266C206.805 32.779 207.908 32.5355 209.083 32.5355C210.028 32.5355 210.93 32.7074 211.79 33.0512C212.649 33.395 213.552 33.9536 214.497 34.7271L210.93 36.8326Z" fill="#D0F1F8"/>
<path d="M218.192 40.6141C217.527 40.6141 216.981 40.4011 216.555 39.9751C216.156 39.5491 215.956 39.0166 215.956 38.3776C215.956 37.712 216.156 37.1795 216.555 36.7801C216.981 36.3541 217.527 36.1411 218.192 36.1411C218.831 36.1411 219.364 36.3541 219.79 36.7801C220.216 37.1795 220.429 37.712 220.429 38.3776C220.429 39.0166 220.216 39.5491 219.79 39.9751C219.364 40.4011 218.831 40.6141 218.192 40.6141ZM218.192 54.0332C217.527 54.0332 216.981 53.8202 216.555 53.3942C216.156 52.9682 215.956 52.4357 215.956 51.7967C215.956 51.1311 216.156 50.5986 216.555 50.1992C216.981 49.7732 217.527 49.5602 218.192 49.5602C218.831 49.5602 219.364 49.7732 219.79 50.1992C220.216 50.5986 220.429 51.1311 220.429 51.7967C220.429 52.4357 220.216 52.9682 219.79 53.3942C219.364 53.8202 218.831 54.0332 218.192 54.0332Z" fill="#D0F1F8"/>
<path d="M224.939 54.193C224.673 54.193 224.54 54.0599 224.54 53.7936V26.6359C224.54 26.3696 224.673 26.2365 224.939 26.2365H226.976C227.243 26.2365 227.376 26.3696 227.376 26.6359V53.7936C227.376 54.0599 227.243 54.193 226.976 54.193H224.939Z" fill="#D0F1F8"/>
<path d="M237.906 33.665C239.77 33.665 241.261 34.2773 242.379 35.5021C243.497 36.7002 244.056 38.311 244.056 40.3346V53.7936C244.056 54.0599 243.923 54.193 243.657 54.193H241.62C241.354 54.193 241.221 54.0599 241.221 53.7936V52.5955C241.221 52.5422 241.194 52.5156 241.141 52.5156C241.114 52.489 241.074 52.5023 241.021 52.5555C240.036 53.8602 238.558 54.5125 236.588 54.5125C235.124 54.5125 233.845 54.0998 232.754 53.2744C231.689 52.4224 231.156 50.9314 231.156 48.8014C231.156 46.5382 231.809 44.8875 233.113 43.8491C234.418 42.7841 236.135 42.2516 238.265 42.2516H241.061C241.167 42.2516 241.221 42.1983 241.221 42.0918V40.5343C241.221 39.203 240.914 38.138 240.302 37.3392C239.69 36.5405 238.864 36.1411 237.826 36.1411C237.027 36.1411 236.335 36.4073 235.749 36.9399C235.19 37.4724 234.857 38.1513 234.751 38.9767C234.751 39.2429 234.618 39.3761 234.351 39.3761L232.115 39.3361C231.982 39.3361 231.875 39.2962 231.795 39.2163C231.742 39.1364 231.729 39.0432 231.755 38.9367C231.889 37.3659 232.528 36.1012 233.672 35.1426C234.817 34.1575 236.228 33.665 237.906 33.665ZM237.187 52.0363C238.279 52.0363 239.224 51.6902 240.023 50.998C240.821 50.2791 241.221 49.2939 241.221 48.0426V44.6878C241.221 44.5813 241.167 44.528 241.061 44.528H238.225C236.947 44.528 235.936 44.8742 235.19 45.5664C234.445 46.232 234.072 47.2305 234.072 48.5618C234.072 49.7333 234.351 50.6119 234.911 51.1976C235.496 51.7568 236.255 52.0363 237.187 52.0363Z" fill="#D0F1F8"/>
<path d="M255.362 33.665C257.039 33.665 258.384 34.2241 259.396 35.3423C260.434 36.434 260.953 37.9117 260.953 39.7754V48.402C260.953 50.2125 260.448 51.6902 259.436 52.8351C258.424 53.9534 257.066 54.5125 255.362 54.5125C254.643 54.5125 253.951 54.3794 253.285 54.1131C252.62 53.8202 252.034 53.3942 251.528 52.8351C251.475 52.7818 251.422 52.7685 251.368 52.7952C251.342 52.8218 251.328 52.8617 251.328 52.915V53.7936C251.328 54.0599 251.195 54.193 250.929 54.193H248.892C248.626 54.193 248.493 54.0599 248.493 53.7936V26.6359C248.493 26.3696 248.626 26.2365 248.892 26.2365H250.929C251.195 26.2365 251.328 26.3696 251.328 26.6359V35.2625C251.328 35.3157 251.355 35.3556 251.408 35.3823C251.462 35.4089 251.515 35.3823 251.568 35.3024C252.047 34.7699 252.62 34.3705 253.285 34.1043C253.951 33.8114 254.643 33.665 255.362 33.665ZM258.118 39.9751C258.118 38.8302 257.798 37.9117 257.159 37.2194C256.52 36.5005 255.682 36.1411 254.643 36.1411C253.658 36.1411 252.859 36.5005 252.247 37.2194C251.635 37.9117 251.328 38.8302 251.328 39.9751V48.2423C251.328 49.3605 251.635 50.2791 252.247 50.998C252.859 51.6902 253.658 52.0363 254.643 52.0363C255.682 52.0363 256.52 51.6902 257.159 50.998C257.798 50.2791 258.118 49.3605 258.118 48.2423V39.9751Z" fill="#D0F1F8"/>
<path d="M270.652 54.3927C268.815 54.3927 267.338 53.9267 266.219 52.9948C265.128 52.0363 264.582 50.7716 264.582 49.2008V48.9212C264.582 48.6549 264.715 48.5218 264.981 48.5218H266.898C267.164 48.5218 267.298 48.6549 267.298 48.9212V49.1608C267.298 50.0128 267.604 50.7317 268.216 51.3175C268.855 51.9032 269.681 52.1961 270.692 52.1961C271.651 52.1961 272.423 51.9032 273.009 51.3175C273.594 50.7317 273.887 49.9862 273.887 49.0809C273.887 48.3887 273.701 47.8162 273.328 47.3636C272.955 46.8844 272.516 46.5116 272.01 46.2454C271.531 45.9791 270.799 45.633 269.814 45.207C268.775 44.781 267.91 44.3683 267.218 43.9689C266.552 43.5429 265.966 42.9571 265.46 42.2116C264.981 41.4395 264.742 40.4677 264.742 39.2962C264.742 37.5922 265.261 36.2476 266.299 35.2625C267.364 34.2773 268.789 33.7848 270.572 33.7848C272.383 33.7848 273.821 34.2906 274.886 35.3024C275.951 36.3142 276.483 37.6587 276.483 39.3361V39.4559C276.483 39.7222 276.35 39.8553 276.084 39.8553H274.247C273.98 39.8553 273.847 39.7222 273.847 39.4559V39.2163C273.847 38.311 273.541 37.5655 272.929 36.9798C272.343 36.394 271.571 36.1012 270.612 36.1012C269.654 36.1012 268.882 36.4073 268.296 37.0197C267.737 37.6055 267.457 38.3377 267.457 39.2163C267.457 39.8553 267.63 40.4011 267.977 40.8538C268.323 41.2798 268.749 41.6392 269.255 41.9321C269.76 42.1983 270.466 42.5311 271.371 42.9305C272.463 43.4098 273.355 43.8624 274.047 44.2884C274.766 44.7144 275.392 45.3135 275.924 46.0856C276.457 46.8577 276.723 47.8162 276.723 48.9611C276.723 50.6119 276.177 51.9298 275.085 52.915C273.994 53.9001 272.516 54.3927 270.652 54.3927Z" fill="#D0F1F8"/>
</svg>
