<svg width="229" height="80" viewBox="0 0 229 80" fill="none" xmlns="http://www.w3.org/2000/svg">
<g id="Frame 6">
<g id="Vector">
<path d="M37.6123 54.1363C35.6643 54.1363 33.8166 53.7639 32.0691 53.0191C30.3216 52.2742 28.789 51.2286 27.4712 49.8822C26.1534 48.5644 25.1221 47.0318 24.3773 45.2843C23.6324 43.5368 23.26 41.6747 23.26 39.698C23.26 37.7214 23.6181 35.8593 24.3343 34.1118C25.0791 32.3643 26.1247 30.8174 27.4712 29.4709C28.789 28.1531 30.3216 27.1218 32.0691 26.377C33.8166 25.6322 35.6643 25.2598 37.6123 25.2598C39.7609 25.2598 41.7949 25.7181 43.7142 26.6348C45.6336 27.5516 47.3524 28.9123 48.8708 30.7171L45.9487 33.2094C43.5996 30.5166 40.8209 29.1701 37.6123 29.1701C36.2086 29.1701 34.8622 29.4423 33.5731 29.9866C32.3126 30.5309 31.1953 31.29 30.2213 32.264C29.2473 33.2381 28.4882 34.3696 27.9439 35.6588C27.3996 36.9192 27.1274 38.2657 27.1274 39.698C27.1274 41.1304 27.3996 42.4912 27.9439 43.7803C28.4882 45.0408 29.2473 46.158 30.2213 47.132C31.1953 48.106 32.3126 48.8652 33.5731 49.4095C34.8622 49.9538 36.2086 50.226 37.6123 50.226C40.8209 50.226 43.5996 48.8795 45.9487 46.1867L48.8708 48.679C47.3238 50.4838 45.5906 51.8445 43.6713 52.7612C41.7805 53.678 39.7609 54.1363 37.6123 54.1363Z" fill="#0C88A0"/>
<path d="M60.6126 54.1793C59.1516 54.1793 57.7622 53.8928 56.4444 53.3199C55.1266 52.7469 53.9664 51.9591 52.9638 50.9565C51.9611 49.9538 51.1733 48.7936 50.6003 47.4758C50.0274 46.158 49.7409 44.7686 49.7409 43.3076C49.7409 41.8179 50.0274 40.3999 50.6003 39.0535C51.1733 37.707 51.9611 36.5325 52.9638 35.5298C53.9664 34.5272 55.1266 33.7537 56.4444 33.2094C57.7622 32.6365 59.1516 32.35 60.6126 32.35C62.1023 32.35 63.5203 32.6365 64.8667 33.2094C66.2132 33.7537 67.3877 34.5272 68.3904 35.5298C69.393 36.5325 70.1665 37.707 70.7108 39.0535C71.2837 40.3999 71.5702 41.8179 71.5702 43.3076C71.5702 44.7686 71.2837 46.158 70.7108 47.4758C70.1665 48.7936 69.393 49.9538 68.3904 50.9565C67.3877 51.9591 66.2132 52.7469 64.8667 53.3199C63.5203 53.8928 62.1023 54.1793 60.6126 54.1793ZM60.6126 36.1744C58.6932 36.1744 57.046 36.862 55.6709 38.237C55.012 38.8959 54.4964 39.6694 54.124 40.5575C53.7516 41.4455 53.5653 42.3622 53.5653 43.3076C53.5653 44.253 53.7516 45.1554 54.124 46.0148C54.4964 46.8742 55.012 47.6334 55.6709 48.2923C56.3298 48.9511 57.0746 49.4668 57.9054 49.8392C58.7648 50.2116 59.6672 50.3978 60.6126 50.3978C61.558 50.3978 62.4747 50.2116 63.3627 49.8392C64.2508 49.4668 65.01 48.9511 65.6402 48.2923C66.2705 47.6334 66.7718 46.8742 67.1442 46.0148C67.5166 45.1554 67.7028 44.253 67.7028 43.3076C67.7028 42.3622 67.5166 41.4455 67.1442 40.5575C66.7718 39.6694 66.2705 38.8959 65.6402 38.237C65.01 37.5781 64.2508 37.0768 63.3627 36.733C62.5033 36.3606 61.5866 36.1744 60.6126 36.1744Z" fill="#0C88A0"/>
<path d="M83.3168 54.1793C81.8557 54.1793 80.4663 53.8928 79.1486 53.3199C77.8308 52.7469 76.6706 51.9591 75.6679 50.9565C74.6653 49.9538 73.8775 48.7936 73.3045 47.4758C72.7316 46.158 72.4451 44.7686 72.4451 43.3076C72.4451 41.8179 72.7316 40.3999 73.3045 39.0535C73.8775 37.707 74.6653 36.5325 75.6679 35.5298C76.6706 34.5272 77.8308 33.7537 79.1486 33.2094C80.4663 32.6365 81.8557 32.35 83.3168 32.35C84.8064 32.35 86.2245 32.6365 87.5709 33.2094C88.9173 33.7537 90.0919 34.5272 91.0945 35.5298C92.0972 36.5325 92.8707 37.707 93.415 39.0535C93.9879 40.3999 94.2744 41.8179 94.2744 43.3076C94.2744 44.7686 93.9879 46.158 93.415 47.4758C92.8707 48.7936 92.0972 49.9538 91.0945 50.9565C90.0919 51.9591 88.9173 52.7469 87.5709 53.3199C86.2245 53.8928 84.8064 54.1793 83.3168 54.1793ZM83.3168 36.1744C81.3974 36.1744 79.7502 36.862 78.3751 38.237C77.7162 38.8959 77.2005 39.6694 76.8281 40.5575C76.4557 41.4455 76.2695 42.3622 76.2695 43.3076C76.2695 44.253 76.4557 45.1554 76.8281 46.0148C77.2005 46.8742 77.7162 47.6334 78.3751 48.2923C79.034 48.9511 79.7788 49.4668 80.6096 49.8392C81.469 50.2116 82.3714 50.3978 83.3168 50.3978C84.2621 50.3978 85.1788 50.2116 86.0669 49.8392C86.955 49.4668 87.7141 48.9511 88.3444 48.2923C88.9746 47.6334 89.4759 46.8742 89.8484 46.0148C90.2208 45.1554 90.407 44.253 90.407 43.3076C90.407 42.3622 90.2208 41.4455 89.8484 40.5575C89.4759 39.6694 88.9746 38.8959 88.3444 38.237C87.7141 37.5781 86.955 37.0768 86.0669 36.733C85.2075 36.3606 84.2908 36.1744 83.3168 36.1744Z" fill="#0C88A0"/>
<path d="M101.143 36.3463V53.9644H97.4908V36.3463H94.268V32.4789H97.4908V25.3887H101.143V32.4789H104.366V36.3463H101.143Z" fill="#0C88A0"/>
<path d="M108.928 44.8546C108.928 45.5421 109.171 46.2583 109.658 47.0031C110.174 47.748 110.761 48.3782 111.42 48.8938C112.623 49.8392 114.027 50.3119 115.631 50.3119C118.181 50.3119 120.258 49.0801 121.862 46.6164L125.128 48.5501C124.011 50.3549 122.636 51.7443 121.003 52.7183C119.37 53.6923 117.579 54.1793 115.631 54.1793C114.17 54.1793 112.781 53.9071 111.463 53.3628C110.145 52.7899 108.985 52.0021 107.982 50.9994C106.98 49.9968 106.192 48.8366 105.619 47.5188C105.075 46.201 104.803 44.8116 104.803 43.3506C104.803 41.8896 105.075 40.5002 105.619 39.1824C106.192 37.836 106.98 36.6614 107.982 35.6588C108.956 34.6561 110.102 33.8826 111.42 33.3383C112.767 32.794 114.17 32.5219 115.631 32.5219C117.092 32.5219 118.482 32.794 119.8 33.3383C121.146 33.8826 122.306 34.6561 123.28 35.6588C125.4 37.836 126.46 40.3569 126.46 43.2217C126.46 43.7373 126.417 44.2816 126.331 44.8546H108.928ZM115.631 36.0455C114.457 36.0455 113.354 36.3033 112.323 36.819C111.291 37.3346 110.46 38.0222 109.83 38.8816C109.229 39.7124 108.928 40.6004 108.928 41.5458H122.335C122.335 40.6004 122.02 39.7124 121.389 38.8816C120.788 38.0222 119.971 37.3346 118.94 36.819C117.909 36.3033 116.806 36.0455 115.631 36.0455Z" fill="#0C88A0"/>
<path d="M138.19 36.6041C137.503 36.289 136.887 36.1314 136.343 36.1314C135.197 36.1314 134.251 36.5325 133.507 37.3346C132.705 38.1941 132.303 39.1824 132.303 40.2996V53.9644H128.608V40.2996C128.608 38.7527 128.995 37.3346 129.768 36.0455C130.57 34.7564 131.659 33.7537 133.034 33.0375C134.065 32.5505 135.168 32.307 136.343 32.307C137.288 32.307 138.19 32.4789 139.05 32.8227C139.909 33.1664 140.812 33.7251 141.757 34.4985L138.19 36.6041Z" fill="#0C88A0"/>
<path d="M145.452 40.3856C144.787 40.3856 144.241 40.1726 143.815 39.7466C143.416 39.3206 143.216 38.7881 143.216 38.1491C143.216 37.4835 143.416 36.951 143.815 36.5516C144.241 36.1256 144.787 35.9126 145.452 35.9126C146.091 35.9126 146.624 36.1256 147.05 36.5516C147.476 36.951 147.689 37.4835 147.689 38.1491C147.689 38.7881 147.476 39.3206 147.05 39.7466C146.624 40.1726 146.091 40.3856 145.452 40.3856ZM145.452 53.8047C144.787 53.8047 144.241 53.5917 143.815 53.1657C143.416 52.7397 143.216 52.2072 143.216 51.5682C143.216 50.9026 143.416 50.3701 143.815 49.9707C144.241 49.5447 144.787 49.3317 145.452 49.3317C146.091 49.3317 146.624 49.5447 147.05 49.9707C147.476 50.3701 147.689 50.9026 147.689 51.5682C147.689 52.2072 147.476 52.7397 147.05 53.1657C146.624 53.5917 146.091 53.8047 145.452 53.8047Z" fill="#0C88A0"/>
<path d="M152.199 53.9645C151.933 53.9645 151.8 53.8313 151.8 53.5651V26.4074C151.8 26.1411 151.933 26.008 152.199 26.008H154.236C154.503 26.008 154.636 26.1411 154.636 26.4074V53.5651C154.636 53.8313 154.503 53.9645 154.236 53.9645H152.199Z" fill="#0C88A0"/>
<path d="M165.166 33.4364C167.03 33.4364 168.521 34.0488 169.639 35.2736C170.757 36.4717 171.316 38.0825 171.316 40.106V53.5651C171.316 53.8313 171.183 53.9645 170.917 53.9645H168.88C168.614 53.9645 168.481 53.8313 168.481 53.5651V52.367C168.481 52.3137 168.454 52.2871 168.401 52.2871C168.374 52.2605 168.334 52.2738 168.281 52.327C167.296 53.6317 165.818 54.284 163.848 54.284C162.384 54.284 161.105 53.8713 160.014 53.0459C158.949 52.1939 158.416 50.7029 158.416 48.5729C158.416 46.3097 159.069 44.659 160.373 43.6206C161.678 42.5556 163.395 42.0231 165.525 42.0231H168.321C168.427 42.0231 168.481 41.9698 168.481 41.8633V40.3057C168.481 38.9745 168.174 37.9095 167.562 37.1107C166.95 36.312 166.124 35.9126 165.086 35.9126C164.287 35.9126 163.595 36.1788 163.009 36.7113C162.45 37.2438 162.117 37.9228 162.011 38.7482C162.011 39.0144 161.878 39.1475 161.611 39.1475L159.375 39.1076C159.242 39.1076 159.135 39.0677 159.055 38.9878C159.002 38.9079 158.989 38.8147 159.015 38.7082C159.149 37.1373 159.788 35.8726 160.932 34.9141C162.077 33.929 163.488 33.4364 165.166 33.4364ZM164.447 51.8078C165.539 51.8078 166.484 51.4617 167.283 50.7694C168.081 50.0506 168.481 49.0654 168.481 47.814V44.4593C168.481 44.3528 168.427 44.2995 168.321 44.2995H165.485C164.207 44.2995 163.196 44.6456 162.45 45.3379C161.705 46.0035 161.332 47.002 161.332 48.3332C161.332 49.5047 161.611 50.3834 162.171 50.9691C162.756 51.5283 163.515 51.8078 164.447 51.8078Z" fill="#0C88A0"/>
<path d="M182.622 33.4364C184.299 33.4364 185.644 33.9956 186.656 35.1138C187.694 36.2055 188.213 37.6832 188.213 39.5469V48.1735C188.213 49.984 187.708 51.4617 186.696 52.6066C185.684 53.7248 184.326 54.284 182.622 54.284C181.903 54.284 181.211 54.1508 180.545 53.8846C179.88 53.5917 179.294 53.1657 178.788 52.6066C178.735 52.5533 178.682 52.54 178.628 52.5666C178.602 52.5933 178.588 52.6332 178.588 52.6865V53.5651C178.588 53.8313 178.455 53.9645 178.189 53.9645H176.152C175.886 53.9645 175.753 53.8313 175.753 53.5651V26.4074C175.753 26.1411 175.886 26.008 176.152 26.008H178.189C178.455 26.008 178.588 26.1411 178.588 26.4074V35.0339C178.588 35.0872 178.615 35.1271 178.668 35.1538C178.722 35.1804 178.775 35.1538 178.828 35.0739C179.307 34.5414 179.88 34.142 180.545 33.8757C181.211 33.5829 181.903 33.4364 182.622 33.4364ZM185.378 39.7466C185.378 38.6017 185.058 37.6832 184.419 36.9909C183.78 36.272 182.942 35.9126 181.903 35.9126C180.918 35.9126 180.119 36.272 179.507 36.9909C178.895 37.6832 178.588 38.6017 178.588 39.7466V48.0137C178.588 49.132 178.895 50.0506 179.507 50.7694C180.119 51.4617 180.918 51.8078 181.903 51.8078C182.942 51.8078 183.78 51.4617 184.419 50.7694C185.058 50.0506 185.378 49.132 185.378 48.0137V39.7466Z" fill="#0C88A0"/>
<path d="M197.912 54.1642C196.075 54.1642 194.598 53.6982 193.479 52.7663C192.388 51.8078 191.842 50.5431 191.842 48.9722V48.6927C191.842 48.4264 191.975 48.2933 192.241 48.2933H194.158C194.424 48.2933 194.558 48.4264 194.558 48.6927V48.9323C194.558 49.7843 194.864 50.5032 195.476 51.0889C196.115 51.6747 196.941 51.9676 197.952 51.9676C198.911 51.9676 199.683 51.6747 200.269 51.0889C200.854 50.5032 201.147 49.7577 201.147 48.8524C201.147 48.1602 200.961 47.5877 200.588 47.1351C200.215 46.6558 199.776 46.2831 199.27 46.0168C198.791 45.7506 198.059 45.4045 197.074 44.9785C196.035 44.5525 195.17 44.1398 194.478 43.7404C193.812 43.3144 193.226 42.7286 192.72 41.9831C192.241 41.211 192.002 40.2392 192.002 39.0677C192.002 37.3637 192.521 36.0191 193.559 35.0339C194.624 34.0488 196.049 33.5562 197.832 33.5562C199.643 33.5562 201.081 34.0621 202.146 35.0739C203.211 36.0856 203.743 37.4302 203.743 39.1076V39.2274C203.743 39.4937 203.61 39.6268 203.344 39.6268H201.507C201.24 39.6268 201.107 39.4937 201.107 39.2274V38.9878C201.107 38.0825 200.801 37.337 200.189 36.7513C199.603 36.1655 198.831 35.8726 197.872 35.8726C196.914 35.8726 196.142 36.1788 195.556 36.7912C194.997 37.377 194.717 38.1092 194.717 38.9878C194.717 39.6268 194.89 40.1726 195.237 40.6252C195.583 41.0512 196.009 41.4107 196.515 41.7036C197.02 41.9698 197.726 42.3026 198.631 42.702C199.723 43.1813 200.615 43.6339 201.307 44.0599C202.026 44.4859 202.652 45.085 203.184 45.8571C203.717 46.6292 203.983 47.5877 203.983 48.7326C203.983 50.3834 203.437 51.7013 202.345 52.6865C201.254 53.6716 199.776 54.1642 197.912 54.1642Z" fill="#0C88A0"/>
</g>
</g>
</svg>
